<svg width="22" height="28" viewBox="0 0 22 28" fill="none" xmlns="http://www.w3.org/2000/svg">
<g clip-path="url(#clip0_56_44)">
<path d="M6.28571 0C7.15491 0 7.85714 0.782031 7.85714 1.75V3.5H14.1429V1.75C14.1429 0.782031 14.8451 0 15.7143 0C16.5835 0 17.2857 0.782031 17.2857 1.75V3.5H19.6429C20.9442 3.5 22 4.67578 22 6.125V8.75H0V6.125C0 4.67578 1.0558 3.5 2.35714 3.5H4.71429V1.75C4.71429 0.782031 5.41652 0 6.28571 0ZM0 10.5H22V25.375C22 26.8242 20.9442 28 19.6429 28H2.35714C1.0558 28 0 26.8242 0 25.375V10.5ZM3.14286 14.875V16.625C3.14286 17.1063 3.49643 17.5 3.92857 17.5H5.5C5.93214 17.5 6.28571 17.1063 6.28571 16.625V14.875C6.28571 14.3938 5.93214 14 5.5 14H3.92857C3.49643 14 3.14286 14.3938 3.14286 14.875ZM9.42857 14.875V16.625C9.42857 17.1063 9.78214 17.5 10.2143 17.5H11.7857C12.2179 17.5 12.5714 17.1063 12.5714 16.625V14.875C12.5714 14.3938 12.2179 14 11.7857 14H10.2143C9.78214 14 9.42857 14.3938 9.42857 14.875ZM16.5 14C16.0679 14 15.7143 14.3938 15.7143 14.875V16.625C15.7143 17.1063 16.0679 17.5 16.5 17.5H18.0714C18.5036 17.5 18.8571 17.1063 18.8571 16.625V14.875C18.8571 14.3938 18.5036 14 18.0714 14H16.5ZM3.14286 21.875V23.625C3.14286 24.1063 3.49643 24.5 3.92857 24.5H5.5C5.93214 24.5 6.28571 24.1063 6.28571 23.625V21.875C6.28571 21.3937 5.93214 21 5.5 21H3.92857C3.49643 21 3.14286 21.3937 3.14286 21.875ZM10.2143 21C9.78214 21 9.42857 21.3937 9.42857 21.875V23.625C9.42857 24.1063 9.78214 24.5 10.2143 24.5H11.7857C12.2179 24.5 12.5714 24.1063 12.5714 23.625V21.875C12.5714 21.3937 12.2179 21 11.7857 21H10.2143ZM15.7143 21.875V23.625C15.7143 24.1063 16.0679 24.5 16.5 24.5H18.0714C18.5036 24.5 18.8571 24.1063 18.8571 23.625V21.875C18.8571 21.3937 18.5036 21 18.0714 21H16.5C16.0679 21 15.7143 21.3937 15.7143 21.875Z" fill="white"/>
</g>
<defs>
<clipPath id="clip0_56_44">
<rect width="22" height="28" fill="white"/>
</clipPath>
</defs>
</svg>
