<svg width="22" height="22" viewBox="0 0 22 22" fill="none" xmlns="http://www.w3.org/2000/svg">
<path d="M15.5833 5.15625C15.5833 7.50234 12.7913 11.6832 11.5653 13.4062C11.2712 13.8188 10.725 13.8188 10.4347 13.4062C9.20868 11.6832 6.41667 7.50234 6.41667 5.15625C6.41667 2.30742 8.46771 0 11 0C13.5323 0 15.5833 2.30742 15.5833 5.15625ZM15.8889 8.61094C16.0226 8.31445 16.1448 8.01797 16.2556 7.72578C16.2747 7.67422 16.2938 7.61836 16.3128 7.5668L20.7434 5.57305C21.3469 5.30234 22 5.80078 22 6.53125V18.1672C22 18.5883 21.7708 18.9664 21.4233 19.1254L15.8889 21.6133V8.61094ZM5.25556 5.94258C5.34722 6.54844 5.53056 7.15859 5.74444 7.72578C5.85521 8.01797 5.97743 8.31445 6.11111 8.61094V19.4133L1.2566 21.6004C0.653125 21.8711 0 21.3727 0 20.6422V9.00625C0 8.58516 0.229167 8.20703 0.576736 8.04805L5.25937 5.94258H5.25556ZM12.5201 14.2656C13.051 13.518 13.8837 12.302 14.6667 10.957V21.6691L7.33333 19.3102V10.957C8.11632 12.302 8.94896 13.518 9.47986 14.2656C10.2628 15.3656 11.7372 15.3656 12.5201 14.2656ZM11 6.53125C11.4052 6.53125 11.7938 6.35017 12.0803 6.02784C12.3668 5.70551 12.5278 5.26834 12.5278 4.8125C12.5278 4.35666 12.3668 3.91949 12.0803 3.59716C11.7938 3.27483 11.4052 3.09375 11 3.09375C10.5948 3.09375 10.2062 3.27483 9.9197 3.59716C9.63318 3.91949 9.47222 4.35666 9.47222 4.8125C9.47222 5.26834 9.63318 5.70551 9.9197 6.02784C10.2062 6.35017 10.5948 6.53125 11 6.53125Z" fill="white"/>
</svg>
