<svg width="27" height="30" viewBox="0 0 27 30" fill="none" xmlns="http://www.w3.org/2000/svg">
<g clip-path="url(#clip0_56_50)">
<path d="M13.5 15C15.546 15 17.5081 14.2098 18.9548 12.8033C20.4015 11.3968 21.2143 9.48912 21.2143 7.5C21.2143 5.51088 20.4015 3.60322 18.9548 2.1967C17.5081 0.790176 15.546 0 13.5 0C11.454 0 9.49189 0.790176 8.04518 2.1967C6.59847 3.60322 5.78571 5.51088 5.78571 7.5C5.78571 9.48912 6.59847 11.3968 8.04518 12.8033C9.49189 14.2098 11.454 15 13.5 15ZM10.7458 17.8125C4.80938 17.8125 0 22.4883 0 28.2598C0 29.2207 0.801563 30 1.78996 30H25.21C26.1984 30 27 29.2207 27 28.2598C27 22.4883 22.1906 17.8125 16.2542 17.8125H10.7458Z" fill="white"/>
</g>
<defs>
<clipPath id="clip0_56_50">
<rect width="27" height="30" fill="white"/>
</clipPath>
</defs>
</svg>
