<svg width="22" height="32" viewBox="0 0 22 32" fill="none" xmlns="http://www.w3.org/2000/svg">
<path d="M2.75 0C1.23177 0 0 1.34375 0 3V29C0 30.6562 1.23177 32 2.75 32H8.25V27C8.25 25.3438 9.48177 24 11 24C12.5182 24 13.75 25.3438 13.75 27V32H19.25C20.7682 32 22 30.6562 22 29V3C22 1.34375 20.7682 0 19.25 0H2.75ZM3.66667 15C3.66667 14.45 4.07917 14 4.58333 14H6.41667C6.92083 14 7.33333 14.45 7.33333 15V17C7.33333 17.55 6.92083 18 6.41667 18H4.58333C4.07917 18 3.66667 17.55 3.66667 17V15ZM10.0833 14H11.9167C12.4208 14 12.8333 14.45 12.8333 15V17C12.8333 17.55 12.4208 18 11.9167 18H10.0833C9.57917 18 9.16667 17.55 9.16667 17V15C9.16667 14.45 9.57917 14 10.0833 14ZM14.6667 15C14.6667 14.45 15.0792 14 15.5833 14H17.4167C17.9208 14 18.3333 14.45 18.3333 15V17C18.3333 17.55 17.9208 18 17.4167 18H15.5833C15.0792 18 14.6667 17.55 14.6667 17V15ZM4.58333 6H6.41667C6.92083 6 7.33333 6.45 7.33333 7V9C7.33333 9.55 6.92083 10 6.41667 10H4.58333C4.07917 10 3.66667 9.55 3.66667 9V7C3.66667 6.45 4.07917 6 4.58333 6ZM9.16667 7C9.16667 6.45 9.57917 6 10.0833 6H11.9167C12.4208 6 12.8333 6.45 12.8333 7V9C12.8333 9.55 12.4208 10 11.9167 10H10.0833C9.57917 10 9.16667 9.55 9.16667 9V7ZM15.5833 6H17.4167C17.9208 6 18.3333 6.45 18.3333 7V9C18.3333 9.55 17.9208 10 17.4167 10H15.5833C15.0792 10 14.6667 9.55 14.6667 9V7C14.6667 6.45 15.0792 6 15.5833 6Z" fill="white"/>
</svg>
