<svg width="25" height="25" viewBox="0 0 25 25" fill="none" xmlns="http://www.w3.org/2000/svg">
<g clip-path="url(#clip0_57_3)">
<path d="M24.2139 8.13477C24.3701 8.55957 24.2383 9.0332 23.9014 9.33594L21.7871 11.2598C21.8408 11.665 21.8701 12.0801 21.8701 12.5C21.8701 12.9199 21.8408 13.335 21.7871 13.7402L23.9014 15.6641C24.2383 15.9668 24.3701 16.4404 24.2139 16.8652C23.999 17.4463 23.7402 18.0029 23.4424 18.54L23.2129 18.9355C22.8906 19.4727 22.5293 19.9805 22.1338 20.459C21.8457 20.8105 21.3672 20.9277 20.9375 20.791L18.2178 19.9268C17.5635 20.4297 16.8408 20.8496 16.0694 21.167L15.459 23.9551C15.3613 24.3994 15.0195 24.751 14.5703 24.8242C13.8965 24.9365 13.2031 24.9951 12.4951 24.9951C11.7871 24.9951 11.0938 24.9365 10.4199 24.8242C9.97072 24.751 9.62892 24.3994 9.53126 23.9551L8.92091 21.167C8.14943 20.8496 7.42677 20.4297 6.77247 19.9268L4.05763 20.7959C3.62794 20.9326 3.14943 20.8105 2.86134 20.4639C2.46583 19.9853 2.1045 19.4775 1.78224 18.9404L1.55275 18.5449C1.2549 18.0078 0.996106 17.4512 0.781263 16.8701C0.625013 16.4453 0.756848 15.9717 1.09376 15.6689L3.20802 13.7451C3.15431 13.335 3.12501 12.9199 3.12501 12.5C3.12501 12.0801 3.15431 11.665 3.20802 11.2598L1.09376 9.33594C0.756848 9.0332 0.625013 8.55957 0.781263 8.13477C0.996106 7.55371 1.2549 6.99707 1.55275 6.45996L1.78224 6.06445C2.1045 5.52734 2.46583 5.01953 2.86134 4.54102C3.14943 4.18945 3.62794 4.07227 4.05763 4.20898L6.77736 5.07324C7.43165 4.57031 8.15431 4.15039 8.92579 3.83301L9.53615 1.04492C9.6338 0.600586 9.9756 0.249023 10.4248 0.175781C11.0986 0.0585937 11.792 0 12.5 0C13.208 0 13.9014 0.0585937 14.5752 0.170898C15.0244 0.244141 15.3662 0.595703 15.4639 1.04004L16.0742 3.82812C16.8457 4.14551 17.5684 4.56543 18.2227 5.06836L20.9424 4.2041C21.3721 4.06738 21.8506 4.18945 22.1387 4.53613C22.5342 5.01465 22.8955 5.52246 23.2178 6.05957L23.4473 6.45508C23.7451 6.99219 24.0039 7.54883 24.2188 8.12988L24.2139 8.13477ZM12.5 16.4062C13.536 16.4062 14.5296 15.9947 15.2621 15.2621C15.9947 14.5296 16.4063 13.536 16.4063 12.5C16.4063 11.464 15.9947 10.4704 15.2621 9.73786C14.5296 9.0053 13.536 8.59375 12.5 8.59375C11.464 8.59375 10.4704 9.0053 9.73788 9.73786C9.00531 10.4704 8.59376 11.464 8.59376 12.5C8.59376 13.536 9.00531 14.5296 9.73788 15.2621C10.4704 15.9947 11.464 16.4062 12.5 16.4062Z" fill="white"/>
</g>
<defs>
<clipPath id="clip0_57_3">
<rect width="25" height="25" fill="white"/>
</clipPath>
</defs>
</svg>
