<svg width="27" height="22" viewBox="0 0 27 22" fill="none" xmlns="http://www.w3.org/2000/svg">
<g clip-path="url(#clip0_61_5)">
<path d="M6.075 6.875C6.97011 6.875 7.82855 6.51284 8.46149 5.86818C9.09442 5.22352 9.45 4.34918 9.45 3.4375C9.45 2.52582 9.09442 1.65148 8.46149 1.00682C7.82855 0.362164 6.97011 0 6.075 0C5.17989 0 4.32145 0.362164 3.68851 1.00682C3.05558 1.65148 2.7 2.52582 2.7 3.4375C2.7 4.34918 3.05558 5.22352 3.68851 5.86818C4.32145 6.51284 5.17989 6.875 6.075 6.875ZM21.6 6.875C22.4951 6.875 23.3536 6.51284 23.9865 5.86818C24.6194 5.22352 24.975 4.34918 24.975 3.4375C24.975 2.52582 24.6194 1.65148 23.9865 1.00682C23.3536 0.362164 22.4951 0 21.6 0C20.7049 0 19.8465 0.362164 19.2135 1.00682C18.5806 1.65148 18.225 2.52582 18.225 3.4375C18.225 4.34918 18.5806 5.22352 19.2135 5.86818C19.8465 6.51284 20.7049 6.875 21.6 6.875ZM0 12.8348C0 13.3375 0.405 13.75 0.898594 13.75H9.89719C9.90563 13.75 9.91406 13.75 9.92672 13.75C8.80453 12.7402 8.1 11.2664 8.1 9.625C8.1 9.29844 8.12953 8.98047 8.18016 8.6668C7.60641 8.39609 6.96938 8.25 6.29859 8.25H4.49719C2.01656 8.25 0 10.3039 0 12.8348ZM13.5 13.75C14.5125 13.75 15.4364 13.3719 16.1452 12.7488C16.2506 12.5898 16.3645 12.4352 16.4827 12.2891C16.5966 12.1473 16.7231 12.027 16.8623 11.9324C17.2969 11.2707 17.55 10.4801 17.55 9.625C17.55 7.34766 15.7359 5.5 13.5 5.5C11.2641 5.5 9.45 7.34766 9.45 9.625C9.45 11.9023 11.2641 13.75 13.5 13.75ZM16.2591 16.3367C15.8245 16.0832 15.4955 15.6406 15.3816 15.125H11.0278C7.91859 15.125 5.4 17.6902 5.4 20.8527C5.4 21.4844 5.90203 22 6.52641 22H19.208C19.1194 21.7766 19.073 21.5316 19.073 21.2953V21.1664C19.0181 21.1363 18.9591 21.102 18.9042 21.0676L18.7945 21.132C18.0858 21.5488 17.0859 21.4758 16.4869 20.7152C16.297 20.4746 16.1241 20.2211 15.9638 19.959L15.9595 19.9504L15.9553 19.9418L15.8541 19.7656L15.8498 19.757L15.8456 19.7484C15.7022 19.482 15.5756 19.207 15.4659 18.9191C15.12 18.0082 15.5588 17.0887 16.2675 16.6719L16.3814 16.6074C16.3814 16.573 16.3814 16.543 16.3814 16.5086C16.3814 16.4742 16.3814 16.4441 16.3814 16.4098L16.2675 16.3453L16.2591 16.3367ZM22.4986 8.25H20.6972C20.0264 8.25 19.3894 8.40039 18.8156 8.6668C18.8705 8.97617 18.8958 9.29844 18.8958 9.625C18.8958 10.3727 18.7481 11.0816 18.4866 11.7305C18.592 11.7691 18.6933 11.8164 18.7861 11.8723L18.8958 11.9367C18.9506 11.9023 19.0055 11.868 19.0645 11.8379V11.709C19.0645 10.8754 19.6256 10.0289 20.5748 9.87852C20.9081 9.82695 21.2498 9.79688 21.5958 9.79688C21.9417 9.79688 22.2834 9.82266 22.6167 9.87852C23.5659 10.0289 24.127 10.8754 24.127 11.709V11.8379C24.1819 11.868 24.2409 11.9023 24.2958 11.9367L24.4055 11.8723C25.1142 11.4555 26.1141 11.5285 26.7131 12.2891C26.8102 12.4094 26.903 12.5383 26.9916 12.6629C26.903 10.2094 24.9244 8.25 22.4944 8.25H22.4986ZM26.3503 15.2926C26.6161 15.1379 26.7511 14.8156 26.6372 14.5191C26.5486 14.2828 26.4431 14.0551 26.325 13.8359L26.228 13.6641C26.0972 13.4449 25.9538 13.2387 25.7977 13.041C25.6036 12.7961 25.2619 12.7531 24.9961 12.9121L24.8738 12.9852C24.4856 13.2129 24.0131 13.157 23.625 12.9293C23.2369 12.7016 22.9458 12.3062 22.9458 11.8508V11.7047C22.9458 11.391 22.7391 11.1117 22.4353 11.0645C22.1611 11.0215 21.8827 11 21.5958 11C21.3089 11 21.0305 11.0215 20.7563 11.0645C20.4525 11.1117 20.2458 11.391 20.2458 11.7047V11.8508C20.2458 12.3062 19.9547 12.7016 19.5666 12.9293C19.1784 13.157 18.7059 13.2129 18.3178 12.9852L18.1955 12.9121C17.9297 12.7574 17.588 12.8004 17.3939 13.041C17.2378 13.2387 17.0944 13.4492 16.9636 13.6684L16.8666 13.8359C16.7484 14.0551 16.643 14.2828 16.5544 14.5191C16.4447 14.8113 16.5755 15.1336 16.8413 15.2883L16.9636 15.3613C17.3517 15.5891 17.5416 16.0402 17.5416 16.4957C17.5416 16.9512 17.3517 17.4023 16.9636 17.6301L16.837 17.7031C16.5713 17.8578 16.4363 18.1801 16.5502 18.4723C16.6388 18.7086 16.7442 18.932 16.8623 19.1512L16.9636 19.3273C17.0902 19.5465 17.2336 19.7527 17.3897 19.9504C17.5838 20.1953 17.9255 20.2383 18.1913 20.0793L18.3136 20.0063C18.7017 19.7785 19.1742 19.8344 19.5623 20.0621C19.9505 20.2898 20.2416 20.6852 20.2416 21.1406V21.2867C20.2416 21.6004 20.4483 21.8797 20.752 21.927C21.0263 21.9699 21.3047 21.9914 21.5916 21.9914C21.8784 21.9914 22.1569 21.9699 22.4311 21.927C22.7348 21.8797 22.9416 21.6004 22.9416 21.2867V21.1406C22.9416 20.6852 23.2327 20.2898 23.6208 20.0621C24.0089 19.8344 24.4814 19.7785 24.8695 20.0063L24.9919 20.0793C25.2577 20.234 25.5994 20.191 25.7934 19.9504C25.9495 19.7527 26.093 19.5465 26.2195 19.3273L26.3208 19.1469C26.4389 18.9277 26.5444 18.7043 26.633 18.468C26.7427 18.1758 26.6119 17.8535 26.3461 17.6988L26.2195 17.6258C25.8314 17.398 25.6416 16.9469 25.6416 16.4914C25.6416 16.0359 25.8314 15.5848 26.2195 15.357L26.3461 15.284L26.3503 15.2926ZM19.9125 16.5C19.9125 16.0442 20.0903 15.607 20.4068 15.2847C20.7232 14.9623 21.1524 14.7812 21.6 14.7812C22.0476 14.7812 22.4768 14.9623 22.7932 15.2847C23.1097 15.607 23.2875 16.0442 23.2875 16.5C23.2875 16.9558 23.1097 17.393 22.7932 17.7153C22.4768 18.0377 22.0476 18.2188 21.6 18.2188C21.1524 18.2188 20.7232 18.0377 20.4068 17.7153C20.0903 17.393 19.9125 16.9558 19.9125 16.5Z" fill="white"/>
</g>
<defs>
<clipPath id="clip0_61_5">
<rect width="27" height="22" fill="white"/>
</clipPath>
</defs>
</svg>
