<svg width="25" height="25" viewBox="0 0 25 25" fill="none" xmlns="http://www.w3.org/2000/svg">
<path d="M1.5625 1.5625C2.42676 1.5625 3.125 2.26074 3.125 3.125V19.5312C3.125 19.9609 3.47656 20.3125 3.90625 20.3125H23.4375C24.3018 20.3125 25 21.0107 25 21.875C25 22.7393 24.3018 23.4375 23.4375 23.4375H3.90625C1.74805 23.4375 0 21.6895 0 19.5312V3.125C0 2.26074 0.698242 1.5625 1.5625 1.5625ZM6.25 6.25C6.25 5.38574 6.94824 4.6875 7.8125 4.6875H17.1875C18.0518 4.6875 18.75 5.38574 18.75 6.25C18.75 7.11426 18.0518 7.8125 17.1875 7.8125H7.8125C6.94824 7.8125 6.25 7.11426 6.25 6.25ZM7.8125 9.375H14.0625C14.9268 9.375 15.625 10.0732 15.625 10.9375C15.625 11.8018 14.9268 12.5 14.0625 12.5H7.8125C6.94824 12.5 6.25 11.8018 6.25 10.9375C6.25 10.0732 6.94824 9.375 7.8125 9.375ZM7.8125 14.0625H20.3125C21.1768 14.0625 21.875 14.7607 21.875 15.625C21.875 16.4893 21.1768 17.1875 20.3125 17.1875H7.8125C6.94824 17.1875 6.25 16.4893 6.25 15.625C6.25 14.7607 6.94824 14.0625 7.8125 14.0625Z" fill="white"/>
</svg>
